<mxfile host="app.diagrams.net" modified="2023-05-03T19:25:07.549Z" agent="Mozilla/5.0 (Macintosh; Intel Mac OS X 10_15_7) AppleWebKit/537.36 (KHTML, like Gecko) Chrome/112.0.0.0 Safari/537.36" etag="eGJqkNBhn93VAQpH-GzC" version="21.2.6" type="device">
  <diagram id="R2lEEEUBdFMjLlhIrx00" name="Page-1">
    <mxGraphModel dx="2390" dy="1380" grid="1" gridSize="10" guides="1" tooltips="1" connect="1" arrows="1" fold="1" page="1" pageScale="1" pageWidth="1169" pageHeight="1654" math="0" shadow="0" extFonts="Permanent Marker^https://fonts.googleapis.com/css?family=Permanent+Marker">
      <root>
        <mxCell id="0" />
        <mxCell id="1" parent="0" />
        <mxCell id="yq_gFaoosyPulpRFmCPT-1" value="Library" style="rounded=0;whiteSpace=wrap;html=1;" parent="1" vertex="1">
          <mxGeometry x="260" y="120" width="220" height="59" as="geometry" />
        </mxCell>
        <mxCell id="yq_gFaoosyPulpRFmCPT-2" value="Books" style="rounded=0;whiteSpace=wrap;html=1;" parent="1" vertex="1">
          <mxGeometry x="310" y="419" width="120" height="60" as="geometry" />
        </mxCell>
        <mxCell id="yq_gFaoosyPulpRFmCPT-4" value="Students" style="rounded=0;whiteSpace=wrap;html=1;" parent="1" vertex="1">
          <mxGeometry x="310" y="749" width="120" height="40" as="geometry" />
        </mxCell>
        <mxCell id="yq_gFaoosyPulpRFmCPT-5" value="Status Of Issue" style="rounded=0;whiteSpace=wrap;html=1;" parent="1" vertex="1">
          <mxGeometry x="845" y="1030" width="160" height="40" as="geometry" />
        </mxCell>
        <mxCell id="yq_gFaoosyPulpRFmCPT-6" value="Contains" style="rhombus;whiteSpace=wrap;html=1;" parent="1" vertex="1">
          <mxGeometry x="330" y="299" width="80" height="80" as="geometry" />
        </mxCell>
        <mxCell id="yq_gFaoosyPulpRFmCPT-7" value="Issue" style="rhombus;whiteSpace=wrap;html=1;" parent="1" vertex="1">
          <mxGeometry x="330" y="529" width="80" height="80" as="geometry" />
        </mxCell>
        <mxCell id="yq_gFaoosyPulpRFmCPT-8" value="Return" style="rhombus;whiteSpace=wrap;html=1;" parent="1" vertex="1">
          <mxGeometry x="640" y="840" width="80" height="80" as="geometry" />
        </mxCell>
        <mxCell id="yq_gFaoosyPulpRFmCPT-9" value="Issue" style="rhombus;whiteSpace=wrap;html=1;" parent="1" vertex="1">
          <mxGeometry x="880" y="867" width="80" height="80" as="geometry" />
        </mxCell>
        <mxCell id="yq_gFaoosyPulpRFmCPT-10" value="Status Of Return" style="rounded=0;whiteSpace=wrap;html=1;" parent="1" vertex="1">
          <mxGeometry x="572.99" y="980" width="160" height="40" as="geometry" />
        </mxCell>
        <mxCell id="yq_gFaoosyPulpRFmCPT-13" value="" style="endArrow=none;html=1;rounded=0;entryX=0.5;entryY=1;entryDx=0;entryDy=0;" parent="1" source="yq_gFaoosyPulpRFmCPT-6" target="yq_gFaoosyPulpRFmCPT-1" edge="1">
          <mxGeometry width="50" height="50" relative="1" as="geometry">
            <mxPoint x="410" y="469" as="sourcePoint" />
            <mxPoint x="460" y="419" as="targetPoint" />
          </mxGeometry>
        </mxCell>
        <mxCell id="yq_gFaoosyPulpRFmCPT-14" value="" style="endArrow=none;html=1;rounded=0;entryX=0.5;entryY=1;entryDx=0;entryDy=0;exitX=0.5;exitY=0;exitDx=0;exitDy=0;" parent="1" source="yq_gFaoosyPulpRFmCPT-2" target="yq_gFaoosyPulpRFmCPT-6" edge="1">
          <mxGeometry width="50" height="50" relative="1" as="geometry">
            <mxPoint x="410" y="469" as="sourcePoint" />
            <mxPoint x="460" y="419" as="targetPoint" />
          </mxGeometry>
        </mxCell>
        <mxCell id="yq_gFaoosyPulpRFmCPT-15" value="" style="endArrow=none;html=1;rounded=0;exitX=0.5;exitY=0;exitDx=0;exitDy=0;" parent="1" source="yq_gFaoosyPulpRFmCPT-7" edge="1">
          <mxGeometry width="50" height="50" relative="1" as="geometry">
            <mxPoint x="320" y="529" as="sourcePoint" />
            <mxPoint x="370" y="479" as="targetPoint" />
          </mxGeometry>
        </mxCell>
        <mxCell id="yq_gFaoosyPulpRFmCPT-16" value="" style="endArrow=none;html=1;rounded=0;exitX=0.5;exitY=0;exitDx=0;exitDy=0;" parent="1" source="yq_gFaoosyPulpRFmCPT-4" edge="1">
          <mxGeometry width="50" height="50" relative="1" as="geometry">
            <mxPoint x="320" y="659" as="sourcePoint" />
            <mxPoint x="370" y="609" as="targetPoint" />
          </mxGeometry>
        </mxCell>
        <mxCell id="yq_gFaoosyPulpRFmCPT-20" value="description" style="ellipse;whiteSpace=wrap;html=1;rotation=-30;" parent="1" vertex="1">
          <mxGeometry x="87.99000000000001" y="341.5" width="90" height="40" as="geometry" />
        </mxCell>
        <mxCell id="yq_gFaoosyPulpRFmCPT-21" value="date_publisher" style="ellipse;whiteSpace=wrap;html=1;rotation=-30;" parent="1" vertex="1">
          <mxGeometry x="480" y="289" width="90" height="40" as="geometry" />
        </mxCell>
        <mxCell id="yq_gFaoosyPulpRFmCPT-22" value="title" style="ellipse;whiteSpace=wrap;html=1;rotation=-30;" parent="1" vertex="1">
          <mxGeometry x="207.99" y="253" width="80" height="40" as="geometry" />
        </mxCell>
        <mxCell id="yq_gFaoosyPulpRFmCPT-23" value="status" style="ellipse;whiteSpace=wrap;html=1;rotation=-20;" parent="1" vertex="1">
          <mxGeometry x="500" y="341.5" width="90" height="40" as="geometry" />
        </mxCell>
        <mxCell id="yq_gFaoosyPulpRFmCPT-25" value="publisher" style="ellipse;whiteSpace=wrap;html=1;rotation=-40;" parent="1" vertex="1">
          <mxGeometry x="469" y="219" width="90" height="40" as="geometry" />
        </mxCell>
        <mxCell id="yq_gFaoosyPulpRFmCPT-27" value="author" style="ellipse;whiteSpace=wrap;html=1;rotation=-30;" parent="1" vertex="1">
          <mxGeometry x="90" y="419" width="90" height="40" as="geometry" />
        </mxCell>
        <mxCell id="yq_gFaoosyPulpRFmCPT-28" value="&lt;u&gt;isbn&lt;/u&gt;" style="ellipse;whiteSpace=wrap;html=1;rotation=-30;" parent="1" vertex="1">
          <mxGeometry x="190" y="339" width="77.99" height="32.5" as="geometry" />
        </mxCell>
        <mxCell id="yq_gFaoosyPulpRFmCPT-29" value="date_added" style="ellipse;whiteSpace=wrap;html=1;rotation=-30;" parent="1" vertex="1">
          <mxGeometry x="140" y="459" width="90" height="40" as="geometry" />
        </mxCell>
        <mxCell id="yq_gFaoosyPulpRFmCPT-30" value="date_deleted" style="ellipse;whiteSpace=wrap;html=1;rotation=0;" parent="1" vertex="1">
          <mxGeometry x="520" y="439" width="100" height="40" as="geometry" />
        </mxCell>
        <mxCell id="yq_gFaoosyPulpRFmCPT-31" value="" style="endArrow=none;html=1;rounded=0;entryX=0;entryY=1;entryDx=0;entryDy=0;exitX=1;exitY=0.5;exitDx=0;exitDy=0;" parent="1" source="yq_gFaoosyPulpRFmCPT-2" target="yq_gFaoosyPulpRFmCPT-23" edge="1">
          <mxGeometry width="50" height="50" relative="1" as="geometry">
            <mxPoint x="410" y="449" as="sourcePoint" />
            <mxPoint x="460" y="399" as="targetPoint" />
          </mxGeometry>
        </mxCell>
        <mxCell id="yq_gFaoosyPulpRFmCPT-32" value="" style="endArrow=none;html=1;rounded=0;entryX=0;entryY=0.5;entryDx=0;entryDy=0;" parent="1" target="yq_gFaoosyPulpRFmCPT-30" edge="1">
          <mxGeometry width="50" height="50" relative="1" as="geometry">
            <mxPoint x="430" y="449" as="sourcePoint" />
            <mxPoint x="520" y="449" as="targetPoint" />
          </mxGeometry>
        </mxCell>
        <mxCell id="yq_gFaoosyPulpRFmCPT-33" value="" style="endArrow=none;html=1;rounded=0;exitX=1;exitY=0.5;exitDx=0;exitDy=0;" parent="1" source="yq_gFaoosyPulpRFmCPT-2" target="yq_gFaoosyPulpRFmCPT-21" edge="1">
          <mxGeometry width="50" height="50" relative="1" as="geometry">
            <mxPoint x="440" y="399" as="sourcePoint" />
            <mxPoint x="490" y="349" as="targetPoint" />
          </mxGeometry>
        </mxCell>
        <mxCell id="yq_gFaoosyPulpRFmCPT-34" value="" style="endArrow=none;html=1;rounded=0;exitX=1;exitY=0.5;exitDx=0;exitDy=0;" parent="1" source="yq_gFaoosyPulpRFmCPT-2" edge="1">
          <mxGeometry width="50" height="50" relative="1" as="geometry">
            <mxPoint x="430" y="319" as="sourcePoint" />
            <mxPoint x="480" y="269" as="targetPoint" />
          </mxGeometry>
        </mxCell>
        <mxCell id="yq_gFaoosyPulpRFmCPT-35" value="" style="endArrow=none;html=1;rounded=0;exitX=0;exitY=0.25;exitDx=0;exitDy=0;" parent="1" source="yq_gFaoosyPulpRFmCPT-2" edge="1">
          <mxGeometry width="50" height="50" relative="1" as="geometry">
            <mxPoint x="190" y="419" as="sourcePoint" />
            <mxPoint x="240" y="369" as="targetPoint" />
          </mxGeometry>
        </mxCell>
        <mxCell id="yq_gFaoosyPulpRFmCPT-36" value="" style="endArrow=none;html=1;rounded=0;exitX=1;exitY=0.5;exitDx=0;exitDy=0;" parent="1" source="yq_gFaoosyPulpRFmCPT-29" edge="1">
          <mxGeometry width="50" height="50" relative="1" as="geometry">
            <mxPoint x="260" y="489" as="sourcePoint" />
            <mxPoint x="310" y="439" as="targetPoint" />
          </mxGeometry>
        </mxCell>
        <mxCell id="yq_gFaoosyPulpRFmCPT-37" value="" style="endArrow=none;html=1;rounded=0;exitX=0.921;exitY=0.758;exitDx=0;exitDy=0;exitPerimeter=0;" parent="1" source="yq_gFaoosyPulpRFmCPT-27" edge="1">
          <mxGeometry width="50" height="50" relative="1" as="geometry">
            <mxPoint x="260" y="489" as="sourcePoint" />
            <mxPoint x="310" y="439" as="targetPoint" />
          </mxGeometry>
        </mxCell>
        <mxCell id="yq_gFaoosyPulpRFmCPT-38" value="" style="endArrow=none;html=1;rounded=0;" parent="1" source="yq_gFaoosyPulpRFmCPT-20" edge="1">
          <mxGeometry width="50" height="50" relative="1" as="geometry">
            <mxPoint x="210" y="449" as="sourcePoint" />
            <mxPoint x="310" y="439" as="targetPoint" />
          </mxGeometry>
        </mxCell>
        <mxCell id="yq_gFaoosyPulpRFmCPT-39" value="" style="endArrow=none;html=1;rounded=0;" parent="1" edge="1">
          <mxGeometry width="50" height="50" relative="1" as="geometry">
            <mxPoint x="310" y="429" as="sourcePoint" />
            <mxPoint x="260" y="289" as="targetPoint" />
          </mxGeometry>
        </mxCell>
        <mxCell id="yq_gFaoosyPulpRFmCPT-40" value="gender" style="ellipse;whiteSpace=wrap;html=1;rotation=20;" parent="1" vertex="1">
          <mxGeometry x="450" y="569" width="100" height="40" as="geometry" />
        </mxCell>
        <mxCell id="yq_gFaoosyPulpRFmCPT-41" value="last_name" style="ellipse;whiteSpace=wrap;html=1;rotation=-15;" parent="1" vertex="1">
          <mxGeometry x="450" y="809" width="80" height="40" as="geometry" />
        </mxCell>
        <mxCell id="yq_gFaoosyPulpRFmCPT-42" value="date_deleted" style="ellipse;whiteSpace=wrap;html=1;rotation=15;" parent="1" vertex="1">
          <mxGeometry x="267.99" y="839" width="80" height="30" as="geometry" />
        </mxCell>
        <mxCell id="yq_gFaoosyPulpRFmCPT-43" value="status" style="ellipse;whiteSpace=wrap;html=1;rotation=15;" parent="1" vertex="1">
          <mxGeometry x="280" y="621" width="80" height="30" as="geometry" />
        </mxCell>
        <mxCell id="yq_gFaoosyPulpRFmCPT-44" value="address" style="ellipse;whiteSpace=wrap;html=1;rotation=-10;" parent="1" vertex="1">
          <mxGeometry x="200" y="559" width="100" height="40" as="geometry" />
        </mxCell>
        <mxCell id="yq_gFaoosyPulpRFmCPT-45" value="course" style="ellipse;whiteSpace=wrap;html=1;rotation=-30;" parent="1" vertex="1">
          <mxGeometry x="143.94" y="678.92" width="96.31" height="40" as="geometry" />
        </mxCell>
        <mxCell id="yq_gFaoosyPulpRFmCPT-46" value="department" style="ellipse;whiteSpace=wrap;html=1;rotation=-30;" parent="1" vertex="1">
          <mxGeometry x="100" y="589" width="100" height="40" as="geometry" />
        </mxCell>
        <mxCell id="yq_gFaoosyPulpRFmCPT-47" value="middle_name" style="ellipse;whiteSpace=wrap;html=1;rotation=30;" parent="1" vertex="1">
          <mxGeometry x="569" y="621" width="100" height="40" as="geometry" />
        </mxCell>
        <mxCell id="yq_gFaoosyPulpRFmCPT-48" value="first_name" style="ellipse;whiteSpace=wrap;html=1;rotation=-10;" parent="1" vertex="1">
          <mxGeometry x="360" y="859" width="80" height="40" as="geometry" />
        </mxCell>
        <mxCell id="yq_gFaoosyPulpRFmCPT-50" value="contact" style="ellipse;whiteSpace=wrap;html=1;rotation=30;" parent="1" vertex="1">
          <mxGeometry x="559" y="540" width="100" height="40" as="geometry" />
        </mxCell>
        <mxCell id="yq_gFaoosyPulpRFmCPT-51" value="email" style="ellipse;whiteSpace=wrap;html=1;rotation=30;" parent="1" vertex="1">
          <mxGeometry x="520" y="689" width="78" height="40" as="geometry" />
        </mxCell>
        <mxCell id="yq_gFaoosyPulpRFmCPT-52" value="date_created" style="ellipse;whiteSpace=wrap;html=1;rotation=30;" parent="1" vertex="1">
          <mxGeometry x="176.7" y="821.33" width="87.99" height="30" as="geometry" />
        </mxCell>
        <mxCell id="yq_gFaoosyPulpRFmCPT-54" value="&lt;u&gt;id&lt;/u&gt;" style="ellipse;whiteSpace=wrap;html=1;rotation=15;" parent="1" vertex="1">
          <mxGeometry x="390" y="640" width="80" height="30" as="geometry" />
        </mxCell>
        <mxCell id="yq_gFaoosyPulpRFmCPT-55" value="" style="endArrow=none;html=1;rounded=0;exitX=0;exitY=0.25;exitDx=0;exitDy=0;entryX=0.68;entryY=0.942;entryDx=0;entryDy=0;entryPerimeter=0;" parent="1" source="yq_gFaoosyPulpRFmCPT-4" target="yq_gFaoosyPulpRFmCPT-45" edge="1">
          <mxGeometry width="50" height="50" relative="1" as="geometry">
            <mxPoint x="170" y="759" as="sourcePoint" />
            <mxPoint x="220" y="709" as="targetPoint" />
          </mxGeometry>
        </mxCell>
        <mxCell id="yq_gFaoosyPulpRFmCPT-56" value="" style="endArrow=none;html=1;rounded=0;exitX=0.25;exitY=0;exitDx=0;exitDy=0;" parent="1" source="yq_gFaoosyPulpRFmCPT-4" edge="1">
          <mxGeometry width="50" height="50" relative="1" as="geometry">
            <mxPoint x="270" y="699" as="sourcePoint" />
            <mxPoint x="320" y="649" as="targetPoint" />
          </mxGeometry>
        </mxCell>
        <mxCell id="yq_gFaoosyPulpRFmCPT-57" value="" style="endArrow=none;html=1;rounded=0;exitX=0.75;exitY=0;exitDx=0;exitDy=0;" parent="1" source="yq_gFaoosyPulpRFmCPT-4" edge="1">
          <mxGeometry width="50" height="50" relative="1" as="geometry">
            <mxPoint x="380" y="719" as="sourcePoint" />
            <mxPoint x="430" y="669" as="targetPoint" />
          </mxGeometry>
        </mxCell>
        <mxCell id="yq_gFaoosyPulpRFmCPT-58" value="" style="endArrow=none;html=1;rounded=0;entryX=0.672;entryY=1;entryDx=0;entryDy=0;entryPerimeter=0;" parent="1" target="yq_gFaoosyPulpRFmCPT-40" edge="1">
          <mxGeometry width="50" height="50" relative="1" as="geometry">
            <mxPoint x="420" y="749" as="sourcePoint" />
            <mxPoint x="470" y="699" as="targetPoint" />
          </mxGeometry>
        </mxCell>
        <mxCell id="yq_gFaoosyPulpRFmCPT-59" value="" style="endArrow=none;html=1;rounded=0;entryX=0.438;entryY=1.015;entryDx=0;entryDy=0;entryPerimeter=0;exitX=0.972;exitY=-0.002;exitDx=0;exitDy=0;exitPerimeter=0;" parent="1" source="yq_gFaoosyPulpRFmCPT-4" target="yq_gFaoosyPulpRFmCPT-50" edge="1">
          <mxGeometry width="50" height="50" relative="1" as="geometry">
            <mxPoint x="429" y="748" as="sourcePoint" />
            <mxPoint x="600" y="569" as="targetPoint" />
          </mxGeometry>
        </mxCell>
        <mxCell id="yq_gFaoosyPulpRFmCPT-60" value="" style="endArrow=none;html=1;rounded=0;entryX=0.275;entryY=0.971;entryDx=0;entryDy=0;entryPerimeter=0;" parent="1" target="yq_gFaoosyPulpRFmCPT-51" edge="1">
          <mxGeometry width="50" height="50" relative="1" as="geometry">
            <mxPoint x="430" y="759" as="sourcePoint" />
            <mxPoint x="480" y="709" as="targetPoint" />
          </mxGeometry>
        </mxCell>
        <mxCell id="yq_gFaoosyPulpRFmCPT-61" value="" style="endArrow=none;html=1;rounded=0;entryX=0.07;entryY=0.8;entryDx=0;entryDy=0;entryPerimeter=0;" parent="1" target="yq_gFaoosyPulpRFmCPT-47" edge="1">
          <mxGeometry width="50" height="50" relative="1" as="geometry">
            <mxPoint x="430" y="749" as="sourcePoint" />
            <mxPoint x="480" y="699" as="targetPoint" />
          </mxGeometry>
        </mxCell>
        <mxCell id="yq_gFaoosyPulpRFmCPT-62" value="" style="endArrow=none;html=1;rounded=0;exitX=0.25;exitY=0;exitDx=0;exitDy=0;" parent="1" source="yq_gFaoosyPulpRFmCPT-4" edge="1">
          <mxGeometry width="50" height="50" relative="1" as="geometry">
            <mxPoint x="120" y="669" as="sourcePoint" />
            <mxPoint x="170" y="619" as="targetPoint" />
          </mxGeometry>
        </mxCell>
        <mxCell id="yq_gFaoosyPulpRFmCPT-63" value="" style="endArrow=none;html=1;rounded=0;exitX=0.25;exitY=0;exitDx=0;exitDy=0;entryX=0.5;entryY=1;entryDx=0;entryDy=0;" parent="1" source="yq_gFaoosyPulpRFmCPT-4" target="yq_gFaoosyPulpRFmCPT-44" edge="1">
          <mxGeometry width="50" height="50" relative="1" as="geometry">
            <mxPoint x="210" y="649" as="sourcePoint" />
            <mxPoint x="260" y="599" as="targetPoint" />
          </mxGeometry>
        </mxCell>
        <mxCell id="yq_gFaoosyPulpRFmCPT-64" value="" style="endArrow=none;html=1;rounded=0;exitX=0.5;exitY=0;exitDx=0;exitDy=0;" parent="1" source="yq_gFaoosyPulpRFmCPT-52" edge="1">
          <mxGeometry width="50" height="50" relative="1" as="geometry">
            <mxPoint x="260" y="829" as="sourcePoint" />
            <mxPoint x="310" y="779" as="targetPoint" />
          </mxGeometry>
        </mxCell>
        <mxCell id="yq_gFaoosyPulpRFmCPT-65" value="" style="endArrow=none;html=1;rounded=0;" parent="1" edge="1">
          <mxGeometry width="50" height="50" relative="1" as="geometry">
            <mxPoint x="310" y="839" as="sourcePoint" />
            <mxPoint x="360" y="789" as="targetPoint" />
          </mxGeometry>
        </mxCell>
        <mxCell id="yq_gFaoosyPulpRFmCPT-66" value="" style="endArrow=none;html=1;rounded=0;" parent="1" edge="1">
          <mxGeometry width="50" height="50" relative="1" as="geometry">
            <mxPoint x="310" y="839" as="sourcePoint" />
            <mxPoint x="360" y="789" as="targetPoint" />
          </mxGeometry>
        </mxCell>
        <mxCell id="yq_gFaoosyPulpRFmCPT-67" value="" style="endArrow=none;html=1;rounded=0;" parent="1" source="yq_gFaoosyPulpRFmCPT-41" edge="1">
          <mxGeometry width="50" height="50" relative="1" as="geometry">
            <mxPoint x="370" y="839" as="sourcePoint" />
            <mxPoint x="420" y="789" as="targetPoint" />
          </mxGeometry>
        </mxCell>
        <mxCell id="yq_gFaoosyPulpRFmCPT-68" value="" style="endArrow=none;html=1;rounded=0;exitX=0.5;exitY=0;exitDx=0;exitDy=0;" parent="1" source="yq_gFaoosyPulpRFmCPT-48" edge="1">
          <mxGeometry width="50" height="50" relative="1" as="geometry">
            <mxPoint x="350" y="839" as="sourcePoint" />
            <mxPoint x="400" y="789" as="targetPoint" />
          </mxGeometry>
        </mxCell>
        <mxCell id="yq_gFaoosyPulpRFmCPT-72" value="date_issue" style="ellipse;whiteSpace=wrap;html=1;rotation=5;" parent="1" vertex="1">
          <mxGeometry x="885" y="1160" width="80" height="30" as="geometry" />
        </mxCell>
        <mxCell id="yq_gFaoosyPulpRFmCPT-73" value="book_isbn" style="ellipse;whiteSpace=wrap;html=1;rotation=15;" parent="1" vertex="1">
          <mxGeometry x="790" y="1100" width="80" height="30" as="geometry" />
        </mxCell>
        <mxCell id="yq_gFaoosyPulpRFmCPT-74" value="book_title" style="ellipse;whiteSpace=wrap;html=1;rotation=15;" parent="1" vertex="1">
          <mxGeometry x="798" y="1153" width="80" height="30" as="geometry" />
        </mxCell>
        <mxCell id="yq_gFaoosyPulpRFmCPT-75" value="date_expiry" style="ellipse;whiteSpace=wrap;html=1;rotation=-15;" parent="1" vertex="1">
          <mxGeometry x="979" y="1150" width="80" height="30" as="geometry" />
        </mxCell>
        <mxCell id="yq_gFaoosyPulpRFmCPT-76" value="status" style="ellipse;whiteSpace=wrap;html=1;rotation=-30;" parent="1" vertex="1">
          <mxGeometry x="1030" y="1080" width="80" height="30" as="geometry" />
        </mxCell>
        <mxCell id="yq_gFaoosyPulpRFmCPT-78" value="" style="endArrow=none;html=1;rounded=1;entryX=0.196;entryY=1;entryDx=0;entryDy=0;entryPerimeter=0;exitX=0.5;exitY=0;exitDx=0;exitDy=0;" parent="1" source="yq_gFaoosyPulpRFmCPT-73" target="yq_gFaoosyPulpRFmCPT-5" edge="1">
          <mxGeometry width="50" height="50" relative="1" as="geometry">
            <mxPoint x="635" y="1170" as="sourcePoint" />
            <mxPoint x="685" y="1120" as="targetPoint" />
          </mxGeometry>
        </mxCell>
        <mxCell id="yq_gFaoosyPulpRFmCPT-79" value="" style="endArrow=none;html=1;rounded=0;" parent="1" source="yq_gFaoosyPulpRFmCPT-72" edge="1">
          <mxGeometry width="50" height="50" relative="1" as="geometry">
            <mxPoint x="885" y="1120" as="sourcePoint" />
            <mxPoint x="935" y="1070" as="targetPoint" />
          </mxGeometry>
        </mxCell>
        <mxCell id="yq_gFaoosyPulpRFmCPT-80" value="" style="endArrow=none;html=1;rounded=0;entryX=0.388;entryY=1.033;entryDx=0;entryDy=0;entryPerimeter=0;exitX=1;exitY=0;exitDx=0;exitDy=0;" parent="1" source="yq_gFaoosyPulpRFmCPT-74" target="yq_gFaoosyPulpRFmCPT-5" edge="1">
          <mxGeometry width="50" height="50" relative="1" as="geometry">
            <mxPoint x="815" y="1150" as="sourcePoint" />
            <mxPoint x="865" y="1100" as="targetPoint" />
          </mxGeometry>
        </mxCell>
        <mxCell id="yq_gFaoosyPulpRFmCPT-81" value="" style="endArrow=none;html=1;rounded=0;exitX=0.5;exitY=0;exitDx=0;exitDy=0;" parent="1" edge="1">
          <mxGeometry width="50" height="50" relative="1" as="geometry">
            <mxPoint x="1047.5" y="1092.0096189432334" as="sourcePoint" />
            <mxPoint x="995" y="1070" as="targetPoint" />
          </mxGeometry>
        </mxCell>
        <mxCell id="yq_gFaoosyPulpRFmCPT-83" value="" style="endArrow=none;html=1;rounded=0;" parent="1" source="yq_gFaoosyPulpRFmCPT-75" edge="1">
          <mxGeometry width="50" height="50" relative="1" as="geometry">
            <mxPoint x="935" y="1120" as="sourcePoint" />
            <mxPoint x="985" y="1070" as="targetPoint" />
          </mxGeometry>
        </mxCell>
        <mxCell id="yq_gFaoosyPulpRFmCPT-84" value="date_issue" style="ellipse;whiteSpace=wrap;html=1;rotation=0;" parent="1" vertex="1">
          <mxGeometry x="647.99" y="1103" width="80" height="30" as="geometry" />
        </mxCell>
        <mxCell id="yq_gFaoosyPulpRFmCPT-85" value="book_isbn" style="ellipse;whiteSpace=wrap;html=1;rotation=15;" parent="1" vertex="1">
          <mxGeometry x="540" y="1090" width="80" height="30" as="geometry" />
        </mxCell>
        <mxCell id="yq_gFaoosyPulpRFmCPT-86" value="date_expiry" style="ellipse;whiteSpace=wrap;html=1;rotation=-15;" parent="1" vertex="1">
          <mxGeometry x="727.99" y="1057" width="80" height="30" as="geometry" />
        </mxCell>
        <mxCell id="yq_gFaoosyPulpRFmCPT-87" value="" style="endArrow=none;html=1;rounded=1;exitX=0.5;exitY=0;exitDx=0;exitDy=0;" parent="1" edge="1">
          <mxGeometry width="50" height="50" relative="1" as="geometry">
            <mxPoint x="583.8822856765378" y="1090.511112605664" as="sourcePoint" />
            <mxPoint x="630" y="1020" as="targetPoint" />
          </mxGeometry>
        </mxCell>
        <mxCell id="yq_gFaoosyPulpRFmCPT-88" value="" style="endArrow=none;html=1;rounded=0;exitX=0.5;exitY=0;exitDx=0;exitDy=0;" parent="1" edge="1">
          <mxGeometry width="50" height="50" relative="1" as="geometry">
            <mxPoint x="756.1177143234622" y="1060.511112605664" as="sourcePoint" />
            <mxPoint x="710" y="1020" as="targetPoint" />
          </mxGeometry>
        </mxCell>
        <mxCell id="yq_gFaoosyPulpRFmCPT-89" value="" style="endArrow=none;html=1;rounded=0;exitX=0.392;exitY=-0.022;exitDx=0;exitDy=0;exitPerimeter=0;" parent="1" source="yq_gFaoosyPulpRFmCPT-84" edge="1">
          <mxGeometry width="50" height="50" relative="1" as="geometry">
            <mxPoint x="630" y="1073" as="sourcePoint" />
            <mxPoint x="680" y="1023" as="targetPoint" />
          </mxGeometry>
        </mxCell>
        <mxCell id="-YhwI78qaemGB24rPyVu-1" value="SubCategory" style="rounded=0;whiteSpace=wrap;html=1;" parent="1" vertex="1">
          <mxGeometry x="690" y="384.18" width="90" height="40" as="geometry" />
        </mxCell>
        <mxCell id="-YhwI78qaemGB24rPyVu-2" value="Category" style="rounded=0;whiteSpace=wrap;html=1;" parent="1" vertex="1">
          <mxGeometry x="862" y="551.5" width="80" height="40" as="geometry" />
        </mxCell>
        <mxCell id="-YhwI78qaemGB24rPyVu-4" value="name" style="ellipse;whiteSpace=wrap;html=1;rotation=0;" parent="1" vertex="1">
          <mxGeometry x="942" y="649" width="70" height="40" as="geometry" />
        </mxCell>
        <mxCell id="-YhwI78qaemGB24rPyVu-7" value="status" style="ellipse;whiteSpace=wrap;html=1;rotation=0;" parent="1" vertex="1">
          <mxGeometry x="688" y="223" width="66" height="40" as="geometry" />
        </mxCell>
        <mxCell id="-YhwI78qaemGB24rPyVu-8" value="date_created" style="ellipse;whiteSpace=wrap;html=1;rotation=0;" parent="1" vertex="1">
          <mxGeometry x="942" y="489" width="68" height="40" as="geometry" />
        </mxCell>
        <mxCell id="-YhwI78qaemGB24rPyVu-11" value="date_added" style="ellipse;whiteSpace=wrap;html=1;rotation=0;" parent="1" vertex="1">
          <mxGeometry x="839.9965708018791" y="389.0047588653733" width="90" height="40" as="geometry" />
        </mxCell>
        <mxCell id="-YhwI78qaemGB24rPyVu-12" value="status" style="ellipse;whiteSpace=wrap;html=1;rotation=0;" parent="1" vertex="1">
          <mxGeometry x="912" y="440" width="70" height="40" as="geometry" />
        </mxCell>
        <mxCell id="-YhwI78qaemGB24rPyVu-13" value="description" style="ellipse;whiteSpace=wrap;html=1;rotation=0;" parent="1" vertex="1">
          <mxGeometry x="857" y="644.1800000000001" width="65" height="40" as="geometry" />
        </mxCell>
        <mxCell id="-YhwI78qaemGB24rPyVu-14" value="name" style="ellipse;whiteSpace=wrap;html=1;rotation=-15;" parent="1" vertex="1">
          <mxGeometry x="620" y="280" width="70" height="40" as="geometry" />
        </mxCell>
        <mxCell id="-YhwI78qaemGB24rPyVu-15" value="date_created" style="ellipse;whiteSpace=wrap;html=1;rotation=0;" parent="1" vertex="1">
          <mxGeometry x="750" y="479" width="80" height="40" as="geometry" />
        </mxCell>
        <mxCell id="-YhwI78qaemGB24rPyVu-16" value="date_added" style="ellipse;whiteSpace=wrap;html=1;rotation=15;" parent="1" vertex="1">
          <mxGeometry x="639.9965708018791" y="459.0047588653733" width="90" height="40" as="geometry" />
        </mxCell>
        <mxCell id="-YhwI78qaemGB24rPyVu-17" value="description" style="ellipse;whiteSpace=wrap;html=1;rotation=0;" parent="1" vertex="1">
          <mxGeometry x="754" y="270" width="66" height="50" as="geometry" />
        </mxCell>
        <mxCell id="-YhwI78qaemGB24rPyVu-21" value="" style="endArrow=none;html=1;rounded=0;entryX=0.614;entryY=0.993;entryDx=0;entryDy=0;entryPerimeter=0;" parent="1" target="-YhwI78qaemGB24rPyVu-14" edge="1">
          <mxGeometry width="50" height="50" relative="1" as="geometry">
            <mxPoint x="720" y="384" as="sourcePoint" />
            <mxPoint x="740" y="400" as="targetPoint" />
          </mxGeometry>
        </mxCell>
        <mxCell id="-YhwI78qaemGB24rPyVu-22" value="" style="endArrow=none;html=1;rounded=0;exitX=0.423;exitY=0.007;exitDx=0;exitDy=0;entryX=0.5;entryY=1;entryDx=0;entryDy=0;exitPerimeter=0;" parent="1" source="-YhwI78qaemGB24rPyVu-1" target="-YhwI78qaemGB24rPyVu-17" edge="1">
          <mxGeometry width="50" height="50" relative="1" as="geometry">
            <mxPoint x="730" y="380" as="sourcePoint" />
            <mxPoint x="780" y="330" as="targetPoint" />
          </mxGeometry>
        </mxCell>
        <mxCell id="-YhwI78qaemGB24rPyVu-23" value="" style="endArrow=none;html=1;rounded=0;exitX=0.399;exitY=0.034;exitDx=0;exitDy=0;exitPerimeter=0;" parent="1" source="-YhwI78qaemGB24rPyVu-1" edge="1">
          <mxGeometry width="50" height="50" relative="1" as="geometry">
            <mxPoint x="728" y="382" as="sourcePoint" />
            <mxPoint x="718" y="262" as="targetPoint" />
          </mxGeometry>
        </mxCell>
        <mxCell id="-YhwI78qaemGB24rPyVu-24" value="" style="endArrow=none;html=1;rounded=0;exitX=0.5;exitY=0;exitDx=0;exitDy=0;entryX=0.5;entryY=1;entryDx=0;entryDy=0;" parent="1" source="-YhwI78qaemGB24rPyVu-15" target="-YhwI78qaemGB24rPyVu-1" edge="1">
          <mxGeometry width="50" height="50" relative="1" as="geometry">
            <mxPoint x="710" y="480" as="sourcePoint" />
            <mxPoint x="760" y="430" as="targetPoint" />
          </mxGeometry>
        </mxCell>
        <mxCell id="-YhwI78qaemGB24rPyVu-25" value="" style="endArrow=none;html=1;rounded=0;entryX=0.5;entryY=1;entryDx=0;entryDy=0;exitX=0.745;exitY=0.087;exitDx=0;exitDy=0;exitPerimeter=0;" parent="1" source="-YhwI78qaemGB24rPyVu-16" target="-YhwI78qaemGB24rPyVu-1" edge="1">
          <mxGeometry width="50" height="50" relative="1" as="geometry">
            <mxPoint x="680" y="480" as="sourcePoint" />
            <mxPoint x="730" y="430" as="targetPoint" />
          </mxGeometry>
        </mxCell>
        <mxCell id="-YhwI78qaemGB24rPyVu-26" value="" style="endArrow=none;html=1;rounded=0;exitX=0.5;exitY=1;exitDx=0;exitDy=0;entryX=0.5;entryY=0;entryDx=0;entryDy=0;" parent="1" source="-YhwI78qaemGB24rPyVu-2" target="-YhwI78qaemGB24rPyVu-13" edge="1">
          <mxGeometry width="50" height="50" relative="1" as="geometry">
            <mxPoint x="702" y="620" as="sourcePoint" />
            <mxPoint x="752" y="570" as="targetPoint" />
          </mxGeometry>
        </mxCell>
        <mxCell id="-YhwI78qaemGB24rPyVu-27" value="" style="endArrow=none;html=1;rounded=0;" parent="1" source="-YhwI78qaemGB24rPyVu-2" edge="1">
          <mxGeometry width="50" height="50" relative="1" as="geometry">
            <mxPoint x="900" y="550" as="sourcePoint" />
            <mxPoint x="892" y="430" as="targetPoint" />
          </mxGeometry>
        </mxCell>
        <mxCell id="-YhwI78qaemGB24rPyVu-28" value="" style="endArrow=none;html=1;rounded=0;entryX=0;entryY=1;entryDx=0;entryDy=0;" parent="1" target="-YhwI78qaemGB24rPyVu-12" edge="1">
          <mxGeometry width="50" height="50" relative="1" as="geometry">
            <mxPoint x="902" y="550" as="sourcePoint" />
            <mxPoint x="952" y="510" as="targetPoint" />
          </mxGeometry>
        </mxCell>
        <mxCell id="-YhwI78qaemGB24rPyVu-30" value="" style="endArrow=none;html=1;rounded=0;entryX=0.5;entryY=0;entryDx=0;entryDy=0;exitX=0.5;exitY=1;exitDx=0;exitDy=0;" parent="1" source="-YhwI78qaemGB24rPyVu-1" edge="1">
          <mxGeometry width="50" height="50" relative="1" as="geometry">
            <mxPoint x="890" y="430" as="sourcePoint" />
            <mxPoint x="735" y="529" as="targetPoint" />
          </mxGeometry>
        </mxCell>
        <mxCell id="-YhwI78qaemGB24rPyVu-31" value="" style="endArrow=none;html=1;rounded=0;entryX=0.5;entryY=0;entryDx=0;entryDy=0;exitX=0.333;exitY=0.978;exitDx=0;exitDy=0;exitPerimeter=0;" parent="1" source="-YhwI78qaemGB24rPyVu-8" target="-YhwI78qaemGB24rPyVu-2" edge="1">
          <mxGeometry width="50" height="50" relative="1" as="geometry">
            <mxPoint x="970" y="540" as="sourcePoint" />
            <mxPoint x="902" y="560" as="targetPoint" />
          </mxGeometry>
        </mxCell>
        <mxCell id="-YhwI78qaemGB24rPyVu-34" value="" style="endArrow=none;html=1;rounded=0;entryX=0;entryY=0.5;entryDx=0;entryDy=0;" parent="1" target="-YhwI78qaemGB24rPyVu-1" edge="1">
          <mxGeometry width="50" height="50" relative="1" as="geometry">
            <mxPoint x="430" y="450" as="sourcePoint" />
            <mxPoint x="510" y="480" as="targetPoint" />
          </mxGeometry>
        </mxCell>
        <mxCell id="-YhwI78qaemGB24rPyVu-35" value="" style="endArrow=none;html=1;rounded=0;entryX=0.5;entryY=1;entryDx=0;entryDy=0;exitX=0.5;exitY=0;exitDx=0;exitDy=0;" parent="1" source="-YhwI78qaemGB24rPyVu-4" target="-YhwI78qaemGB24rPyVu-2" edge="1">
          <mxGeometry width="50" height="50" relative="1" as="geometry">
            <mxPoint x="852" y="650" as="sourcePoint" />
            <mxPoint x="902" y="600" as="targetPoint" />
          </mxGeometry>
        </mxCell>
        <mxCell id="-YhwI78qaemGB24rPyVu-36" value="" style="endArrow=none;html=1;rounded=0;exitX=1;exitY=0.5;exitDx=0;exitDy=0;entryX=0;entryY=0.5;entryDx=0;entryDy=0;" parent="1" target="-YhwI78qaemGB24rPyVu-2" edge="1">
          <mxGeometry width="50" height="50" relative="1" as="geometry">
            <mxPoint x="770.0000000000182" y="549" as="sourcePoint" />
            <mxPoint x="860" y="570" as="targetPoint" />
          </mxGeometry>
        </mxCell>
        <mxCell id="-YhwI78qaemGB24rPyVu-42" value="&lt;span style=&quot;border-bottom: 1px dotted&quot;&gt;category&lt;/span&gt;" style="ellipse;whiteSpace=wrap;html=1;align=center;" parent="1" vertex="1">
          <mxGeometry x="708" y="529" width="72" height="40" as="geometry" />
        </mxCell>
        <mxCell id="aWQQV_bY45BI6xjyyXW5-1" value="Borrow" style="rounded=0;whiteSpace=wrap;html=1;" vertex="1" parent="1">
          <mxGeometry x="715" y="749" width="120" height="40" as="geometry" />
        </mxCell>
        <mxCell id="aWQQV_bY45BI6xjyyXW5-2" value="" style="endArrow=none;html=1;rounded=0;exitX=1;exitY=0.5;exitDx=0;exitDy=0;entryX=0;entryY=0.5;entryDx=0;entryDy=0;" edge="1" parent="1" source="yq_gFaoosyPulpRFmCPT-4" target="aWQQV_bY45BI6xjyyXW5-1">
          <mxGeometry width="50" height="50" relative="1" as="geometry">
            <mxPoint x="630" y="810" as="sourcePoint" />
            <mxPoint x="680" y="760" as="targetPoint" />
          </mxGeometry>
        </mxCell>
        <mxCell id="aWQQV_bY45BI6xjyyXW5-3" value="" style="endArrow=none;html=1;rounded=0;entryX=0.5;entryY=1;entryDx=0;entryDy=0;" edge="1" parent="1" target="yq_gFaoosyPulpRFmCPT-8">
          <mxGeometry width="50" height="50" relative="1" as="geometry">
            <mxPoint x="680" y="980" as="sourcePoint" />
            <mxPoint x="640" y="920" as="targetPoint" />
            <Array as="points">
              <mxPoint x="680" y="960" />
            </Array>
          </mxGeometry>
        </mxCell>
        <mxCell id="aWQQV_bY45BI6xjyyXW5-4" value="" style="endArrow=none;html=1;rounded=0;entryX=0.5;entryY=1;entryDx=0;entryDy=0;" edge="1" parent="1" target="yq_gFaoosyPulpRFmCPT-9">
          <mxGeometry width="50" height="50" relative="1" as="geometry">
            <mxPoint x="920" y="1030" as="sourcePoint" />
            <mxPoint x="834.5" y="940" as="targetPoint" />
          </mxGeometry>
        </mxCell>
        <mxCell id="aWQQV_bY45BI6xjyyXW5-7" value="" style="endArrow=none;html=1;rounded=0;exitX=0.5;exitY=0;exitDx=0;exitDy=0;" edge="1" parent="1">
          <mxGeometry width="50" height="50" relative="1" as="geometry">
            <mxPoint x="919.7699999999998" y="867" as="sourcePoint" />
            <mxPoint x="920" y="770" as="targetPoint" />
          </mxGeometry>
        </mxCell>
        <mxCell id="aWQQV_bY45BI6xjyyXW5-9" value="" style="endArrow=none;html=1;rounded=0;entryX=0;entryY=0.75;entryDx=0;entryDy=0;" edge="1" parent="1" target="aWQQV_bY45BI6xjyyXW5-1">
          <mxGeometry width="50" height="50" relative="1" as="geometry">
            <mxPoint x="680" y="779" as="sourcePoint" />
            <mxPoint x="770" y="830" as="targetPoint" />
          </mxGeometry>
        </mxCell>
        <mxCell id="aWQQV_bY45BI6xjyyXW5-11" value="" style="endArrow=none;html=1;rounded=0;exitX=1;exitY=0.5;exitDx=0;exitDy=0;" edge="1" parent="1" source="aWQQV_bY45BI6xjyyXW5-1">
          <mxGeometry width="50" height="50" relative="1" as="geometry">
            <mxPoint x="880" y="790" as="sourcePoint" />
            <mxPoint x="920" y="769" as="targetPoint" />
          </mxGeometry>
        </mxCell>
        <mxCell id="aWQQV_bY45BI6xjyyXW5-12" value="" style="endArrow=none;html=1;rounded=0;exitX=0.5;exitY=0;exitDx=0;exitDy=0;" edge="1" parent="1" source="yq_gFaoosyPulpRFmCPT-8">
          <mxGeometry width="50" height="50" relative="1" as="geometry">
            <mxPoint x="630" y="830" as="sourcePoint" />
            <mxPoint x="680" y="780" as="targetPoint" />
          </mxGeometry>
        </mxCell>
        <mxCell id="aWQQV_bY45BI6xjyyXW5-13" value="book_title" style="ellipse;whiteSpace=wrap;html=1;rotation=5;" vertex="1" parent="1">
          <mxGeometry x="585" y="1133" width="80" height="30" as="geometry" />
        </mxCell>
        <mxCell id="aWQQV_bY45BI6xjyyXW5-14" value="" style="endArrow=none;html=1;rounded=0;" edge="1" parent="1" source="aWQQV_bY45BI6xjyyXW5-13">
          <mxGeometry width="50" height="50" relative="1" as="geometry">
            <mxPoint x="610" y="1070" as="sourcePoint" />
            <mxPoint x="660" y="1020" as="targetPoint" />
          </mxGeometry>
        </mxCell>
        <mxCell id="aWQQV_bY45BI6xjyyXW5-15" value="" style="endArrow=none;html=1;rounded=0;" edge="1" parent="1" source="aWQQV_bY45BI6xjyyXW5-16">
          <mxGeometry width="50" height="50" relative="1" as="geometry">
            <mxPoint x="530" y="1070" as="sourcePoint" />
            <mxPoint x="580" y="1020" as="targetPoint" />
          </mxGeometry>
        </mxCell>
        <mxCell id="aWQQV_bY45BI6xjyyXW5-16" value="status" style="ellipse;whiteSpace=wrap;html=1;rotation=25;" vertex="1" parent="1">
          <mxGeometry x="460" y="1060" width="80" height="30" as="geometry" />
        </mxCell>
        <mxCell id="aWQQV_bY45BI6xjyyXW5-18" value="student_id" style="ellipse;whiteSpace=wrap;html=1;rotation=25;" vertex="1" parent="1">
          <mxGeometry x="469" y="1120" width="80" height="30" as="geometry" />
        </mxCell>
        <mxCell id="aWQQV_bY45BI6xjyyXW5-19" value="student_id" style="ellipse;whiteSpace=wrap;html=1;rotation=-15;" vertex="1" parent="1">
          <mxGeometry x="953" y="1209" width="70" height="40" as="geometry" />
        </mxCell>
        <mxCell id="aWQQV_bY45BI6xjyyXW5-22" value="" style="endArrow=none;html=1;rounded=0;" edge="1" parent="1">
          <mxGeometry width="50" height="50" relative="1" as="geometry">
            <mxPoint x="980" y="1210" as="sourcePoint" />
            <mxPoint x="960" y="1070" as="targetPoint" />
          </mxGeometry>
        </mxCell>
        <mxCell id="aWQQV_bY45BI6xjyyXW5-23" value="" style="endArrow=none;html=1;rounded=0;exitX=0.5;exitY=0;exitDx=0;exitDy=0;" edge="1" parent="1" source="aWQQV_bY45BI6xjyyXW5-18">
          <mxGeometry width="50" height="50" relative="1" as="geometry">
            <mxPoint x="550" y="1070" as="sourcePoint" />
            <mxPoint x="600" y="1020" as="targetPoint" />
          </mxGeometry>
        </mxCell>
      </root>
    </mxGraphModel>
  </diagram>
</mxfile>
